<?xml version="1.0" encoding="utf-8"?>
<!-- Generator: Adobe Illustrator 21.1.0, SVG Export Plug-In . SVG Version: 6.00 Build 0)  -->
<svg version="1.1" id="Layer_1" xmlns="http://www.w3.org/2000/svg" xmlns:xlink="http://www.w3.org/1999/xlink" x="0px" y="0px"
	 viewBox="0 0 39 39" style="enable-background:new 0 0 39 39;" xml:space="preserve">
<style type="text/css">
	.st0{fill:#FFFFFF;}
</style>
<title>round-down</title>
<path class="st0" d="M19.5,0C30.3,0,39,8.7,39,19.5S30.3,39,19.5,39S0,30.3,0,19.5S8.7,0,19.5,0z M21.3,29l11.5-11.5
	c1-1,1-2.6,0-3.5c-1-1-2.6-1-3.5,0l-9.7,9.7L9.8,14c-1-1-2.6-1-3.5,0c-1,1-1,2.6,0,3.5L17.7,29c0.5,0.5,1.1,0.7,1.8,0.7
	S20.8,29.5,21.3,29z"/>
</svg>
