<?xml version="1.0" encoding="utf-8"?>
<!-- Generator: Adobe Illustrator 21.1.0, SVG Export Plug-In . SVG Version: 6.00 Build 0)  -->
<svg version="1.1"
	 id="svg3025" inkscape:version="0.48.3.1 r9886" sodipodi:docname="hand_up_font_awesome.svg" xmlns:cc="http://creativecommons.org/ns#" xmlns:dc="http://purl.org/dc/elements/1.1/" xmlns:inkscape="http://www.inkscape.org/namespaces/inkscape" xmlns:rdf="http://www.w3.org/1999/02/22-rdf-syntax-ns#" xmlns:sodipodi="http://sodipodi.sourceforge.net/DTD/sodipodi-0.dtd" xmlns:svg="http://www.w3.org/2000/svg"
	 xmlns="http://www.w3.org/2000/svg" xmlns:xlink="http://www.w3.org/1999/xlink" x="0px" y="0px" viewBox="0 0 985.9 985.9"
	 style="enable-background:new 0 0 985.9 985.9;" xml:space="preserve">
<style type="text/css">
	.st0{fill:#FFFFFF;}
</style>
<sodipodi:namedview  bordercolor="#666666" borderopacity="1" gridtolerance="10" guidetolerance="10" id="namedview3031" inkscape:current-layer="svg3025" inkscape:cx="896" inkscape:cy="896" inkscape:pageopacity="0" inkscape:pageshadow="2" inkscape:window-height="480" inkscape:window-maximized="0" inkscape:window-width="640" inkscape:window-x="0" inkscape:window-y="25" inkscape:zoom="0.13169643" objecttolerance="10" pagecolor="#ffffff" showgrid="false">
	</sodipodi:namedview>
<path class="st0" d="M730.9,773.4v-18c0-27.1,6-58.5,18-94.2C761,625.4,773,589,785.1,552c12-37.1,18-70.8,18-101.3
	c0-71.1-31.4-106.6-94.2-106.6c-9.8,0-20.3,0.9-31.6,2.9c-6-11.3-15.9-20.2-29.7-26.8c-13.8-6.6-27.5-9.9-41.5-9.9
	c-14,0-26.9,3.4-38.9,10.2c-18.9-20-41.2-29.9-67.2-29.9c-9.4,0-19.9,1.8-31.3,5.6c-11.5,3.8-20.4,8.5-26.8,14.1V123.5
	c0-19.6-7.1-36.5-21.4-50.8c-14.3-14.3-31.2-21.4-50.8-21.4c-19.2,0-36,7.3-50.5,22c-14.5,14.7-21.7,31.4-21.7,50.3v324.8
	c-7.5,0-16.6-2.9-27.3-8.5c-10.7-5.6-21.1-11.8-31-18.7c-9.9-6.8-22.7-12.9-38.3-18.7c-15.6-5.7-31.5-8.5-47.7-8.5
	c-25.2,0-43.5,8.4-55,25.1c-11.5,16.9-17.3,38.6-17.3,65.3c0,9.1,26.1,26,78.4,50.8c16.5,9.1,28.7,16,36.7,20.9
	c24.1,15.1,51.4,36.1,81.9,63.2c30.5,26.7,50.4,45.7,59.8,57c21.4,26,32.2,52.3,32.2,79v18l-0.9,49.1h364.2L730.9,773.4z"/>
<path class="st0" d="M713.2,895.8c0-9.8-3.6-18.2-10.7-25.4c-7.1-7.1-15.6-10.7-25.4-10.7c-9.8,0-18.2,3.6-25.4,10.7
	c-7.1,7.1-10.7,15.6-10.7,25.4c0,9.8,3.6,18.2,10.7,25.4c7.1,7.1,15.6,10.7,25.4,10.7c9.8,0,18.2-3.6,25.4-10.7
	C709.7,914.1,713.2,905.6,713.2,895.8z M368.6,841.4H734l2.3,51.3l0.8,18.2c1.1,24-18,44-42,44h-23.1H450.4h-41.3
	c-23.4,0-42.3-19.2-41.9-42.7l0.4-19.9L368.6,841.4z"/>
</svg>
