<?xml version="1.0" encoding="utf-8"?>
<!-- Generator: Adobe Illustrator 21.1.0, SVG Export Plug-In . SVG Version: 6.00 Build 0)  -->
<svg version="1.1" xmlns="http://www.w3.org/2000/svg" xmlns:xlink="http://www.w3.org/1999/xlink" x="0px" y="0px"
	 viewBox="0 0 244 228.7" style="enable-background:new 0 0 244 228.7;" xml:space="preserve">
<style type="text/css">
	.st0{font-family:'GothamNarrow-Bold';}
	.st1{font-size:9px;}
	.st2{font-family:'GothamNarrow-Book';}
	.st3{font-size:7.5px;}
	.st4{fill:none;stroke:#545F9E;stroke-width:0.99;stroke-linecap:round;stroke-linejoin:round;}
	.st5{fill:none;stroke:#D84140;stroke-linecap:round;stroke-linejoin:round;stroke-miterlimit:10;}
	.st6{fill:none;stroke:#545F9E;stroke-width:1.7;stroke-linecap:round;stroke-linejoin:round;stroke-miterlimit:10;}
	.st7{fill:none;stroke:#FCB55C;stroke-width:1.7;stroke-linecap:round;stroke-linejoin:round;stroke-miterlimit:10;}
	.st8{fill:none;stroke:#D84140;stroke-width:1.7;stroke-linecap:round;stroke-linejoin:round;stroke-miterlimit:10;}
	.st9{fill:none;stroke:#006F51;stroke-width:2.7;stroke-linecap:round;stroke-linejoin:round;stroke-miterlimit:10;}
	.st10{fill:none;}
	.st11{font-size:5.992px;}
	.st12{fill:none;stroke:#6D7B84;stroke-linejoin:round;stroke-miterlimit:10;}
	.st13{fill:none;stroke:#6D7B84;stroke-width:0.769;stroke-linejoin:round;stroke-miterlimit:10;}
	.st14{fill:none;stroke:#FCB55C;stroke-width:0.99;stroke-linecap:round;stroke-linejoin:round;}
	.st15{fill:none;stroke:#006F51;stroke-width:1.98;stroke-linecap:round;stroke-linejoin:round;}
</style>
<g id="dividend_increases">
	<g>
		<text transform="matrix(1 0 0 1 45.82 19.5575)" class="st0 st1">Cumulative Total Return Comparison</text>
		<text transform="matrix(1 0 0 1 11.0382 28.5583)" class="st2 st3">(assumes $1,000 investment on 12/31/13 with dividends reinvested)</text>
	</g>
</g>
<g id="Layer_10">
	<polyline class="st4" points="58.6,112.6 87.8,109.4 118.2,112.1 149.2,98.4 179.2,87 209.6,96.9 	"/>
</g>
<g id="Layer_13">
	<polyline class="st5" points="58.6,112.2 87.8,103.5 118.2,102.2 148.9,93.5 179.2,75.3 209.6,79.5 	"/>
</g>
<g id="Layer_11">
</g>
<g id="Layer_5">
	<line class="st6" x1="114.3" y1="203" x2="122.1" y2="203"/>
	<line class="st7" x1="114.3" y1="177.1" x2="122.1" y2="177.1"/>
	<line class="st8" x1="19.5" y1="203" x2="27.3" y2="203"/>
	<line class="st9" x1="18.6" y1="177.1" x2="26.4" y2="177.1"/>
	<text transform="matrix(1 0 0 1 30.0429 180.1293)"><tspan x="0" y="0" class="st2 st3">MGE Energy </tspan><tspan x="0" y="9" class="st2 st3">11.92%</tspan></text>
	<text transform="matrix(1 0 0 1 125.1059 205.9911)"><tspan x="0" y="0" class="st2 st3">Russell 2000 </tspan><tspan x="0" y="9" class="st2 st3">4.41%</tspan></text>
	<text transform="matrix(1 0 0 1 125.106 178.6374)"><tspan x="0" y="0" class="st2 st3">EEI Investor-Owned Electrics  </tspan><tspan x="0" y="9" class="st2 st3">11.0%</tspan></text>
	<text transform="matrix(1 0 0 1 30.1711 205.9881)"><tspan x="0" y="0" class="st2 st3">S&amp;P 500  </tspan><tspan x="0" y="9" class="st2 st3">8.49%</tspan></text>
</g>
<g id="Layer_4">
	<text transform="matrix(1 0 0 1 18.3637 110.4725)"><tspan x="0" y="0" class="st2 st3">$1,000 </tspan><tspan x="-13.4" y="7.9" class="st2 st3">investment</tspan></text>
	<text transform="matrix(1 0 0 1 16.8486 52.3084)" class="st2 st3">$2,000</text>
	<text transform="matrix(1.1884 0 0 1 34.0546 151.8143)" class="st10 st2 st11">25</text>
	<line class="st12" x1="41.9" y1="112.7" x2="226.4" y2="112.7"/>
	<line class="st13" x1="42.1" y1="155" x2="42.1" y2="46.6"/>
	<text transform="matrix(1 0 0 1 49.5747 152.7117)" class="st2 st3">2013</text>
	<text transform="matrix(1 0 0 1 79.85 152.7117)" class="st2 st3">2014</text>
	<text transform="matrix(1 0 0 1 110.8248 152.7117)" class="st2 st3">2015</text>
	<text transform="matrix(1 0 0 1 142.101 152.7117)" class="st2 st3">2016</text>
	<text transform="matrix(1 0 0 1 172.0553 152.7117)" class="st2 st3">2017</text>
	<text transform="matrix(1 0 0 1 203.6713 152.7117)" class="st2 st3">2018</text>
	<text transform="matrix(1 0 0 1 191.434 55.6102)" class="st2 st3">MGEE $1,756</text>
</g>
<g id="Layer_6">
</g>
<g id="Layer_7">
</g>
<g id="Layer_8">
	<polyline class="st14" points="58.6,112.6 87.8,93.3 118.2,97.4 148.9,83 179.2,72.1 209.6,67.6 	"/>
</g>
<g id="Layer_9">
	<polyline class="st15" points="58.6,112.6 87.8,98.2 118.2,95.2 148.9,58.6 209.6,62.9 	"/>
</g>
</svg>
