<?xml version="1.0" encoding="utf-8"?>
<!-- Generator: Adobe Illustrator 21.1.0, SVG Export Plug-In . SVG Version: 6.00 Build 0)  -->
<svg version="1.1" id="Layer_1" xmlns="http://www.w3.org/2000/svg" xmlns:xlink="http://www.w3.org/1999/xlink" x="0px" y="0px"
	 viewBox="0 0 213.8 236.8" style="enable-background:new 0 0 213.8 236.8;" xml:space="preserve">
<style type="text/css">
	.st0{font-family:'GothamNarrow-Book';}
	.st1{font-size:7.5px;}
	.st2{font-family:'GothamNarrow-Bold';}
	.st3{font-size:9px;}
	.st4{fill:#006F51;}
	.st5{clip-path:url(#SVGID_2_);}
	.st6{fill:none;stroke:#82B6A8;stroke-width:1.604;}
	.st7{clip-path:url(#SVGID_5_);}
	.st8{fill:none;stroke:#82B6A8;stroke-width:1.1656;}
</style>
<g id="dividend_increases">
</g>
<g id="Layer_10">
</g>
<g id="Layer_13">
</g>
<g id="Layer_11">
</g>
<g id="Layer_5">
</g>
<g id="Layer_4">
</g>
<g id="Layer_6">
	<text transform="matrix(1 0 0 1 87.6869 17.1584)" class="st0 st1">(</text>
	<text transform="matrix(1 0 0 1 90.4869 17.5584)" class="st0 st1">2014 – 2018</text>
	<text transform="matrix(1 0 0 1 127.8869 17.1584)" class="st0 st1">)</text>
	<text transform="matrix(1 0 0 1 71.9228 8.5575)" class="st2 st3">Earnings Per Share</text>
	<text transform="matrix(1 0 0 1 22.1979 199.0722)" class="st0 st1">2014</text>
	<rect x="19.3" y="71.5" class="st4" width="21" height="118"/>
	<text transform="matrix(1 0 0 1 21.062 41.9347)" class="st0 st1">$2.32</text>
	<text transform="matrix(1 0 0 1 61.6953 199.0722)" class="st0 st1">2015</text>
	<rect x="58.6" y="84.7" class="st4" width="21" height="104.8"/>
	<text transform="matrix(1 0 0 1 59.8689 41.9347)" class="st0 st1">$2.06</text>
	<text transform="matrix(1 0 0 1 100.8837 199.0722)" class="st0 st1">2016</text>
	<rect x="97.9" y="78.7" class="st4" width="21" height="110.8"/>
	<text transform="matrix(1 0 0 1 100.3675 41.9347)" class="st0 st1">$2.18</text>
	<text transform="matrix(1 0 0 1 137.4827 41.9347)" class="st0 st1">$2.82*</text>
	<text transform="matrix(1 0 0 1 140.3882 199.0722)" class="st0 st1">2017</text>
	<rect x="137.2" y="46.2" class="st4" width="21" height="143.4"/>
	<text transform="matrix(1 0 0 1 178.1161 41.9347)" class="st0 st1">$2.43</text>
	<text transform="matrix(1 0 0 1 179.5815 199.0722)" class="st0 st1">2018</text>
	<rect x="176.6" y="66" class="st4" width="21" height="123.6"/>
	<text transform="matrix(1 0 0 1 19.4081 213.6522)" class="st0 st1">*Includes one-time tax benefit of 62 cents per share  </text>
	<text transform="matrix(1 0 0 1 19.4081 221.6522)" class="st0 st1"> due to tax act.</text>
	<g>
		<g>
			<defs>
				<rect id="SVGID_1_" x="137.2" y="46.1" width="21" height="31.5"/>
			</defs>
			<clipPath id="SVGID_2_">
				<use xlink:href="#SVGID_1_"  style="overflow:visible;"/>
			</clipPath>
			<g class="st5">
				<line class="st6" x1="260.2" y1="45.8" x2="137.2" y2="207.2"/>
				<line class="st6" x1="254.7" y1="38.7" x2="131.7" y2="200.1"/>
				<line class="st6" x1="249.3" y1="31.5" x2="126.3" y2="192.9"/>
				<line class="st6" x1="243.8" y1="24.4" x2="120.8" y2="185.8"/>
				<line class="st6" x1="252" y1="35.1" x2="129" y2="196.5"/>
				<line class="st6" x1="262.9" y1="49.4" x2="139.9" y2="210.8"/>
				<line class="st6" x1="267.9" y1="57.2" x2="144.9" y2="218.6"/>
				<line class="st6" x1="273.3" y1="64.3" x2="150.3" y2="225.7"/>
				<line class="st6" x1="271" y1="60.1" x2="148.1" y2="221.5"/>
				<line class="st6" x1="257.4" y1="42.3" x2="134.5" y2="203.7"/>
				<line class="st6" x1="265.6" y1="53" x2="142.6" y2="214.4"/>
				<line class="st6" x1="241.1" y1="20.8" x2="118.1" y2="182.2"/>
				<line class="st6" x1="246.5" y1="28" x2="123.6" y2="189.4"/>
				<line class="st6" x1="284.7" y1="78" x2="161.7" y2="239.4"/>
				<line class="st6" x1="281.9" y1="74.4" x2="159" y2="235.8"/>
				<line class="st6" x1="279.2" y1="70.9" x2="156.2" y2="232.3"/>
				<line class="st6" x1="276.5" y1="67.3" x2="153.5" y2="228.7"/>
				<line class="st6" x1="295.6" y1="92.3" x2="172.6" y2="253.7"/>
				<line class="st6" x1="301" y1="99.4" x2="178" y2="260.9"/>
				<line class="st6" x1="303.3" y1="103.6" x2="180.3" y2="265"/>
				<line class="st6" x1="308.7" y1="110.8" x2="185.7" y2="272.2"/>
				<line class="st6" x1="306.4" y1="106.6" x2="183.5" y2="268"/>
				<line class="st6" x1="298.3" y1="95.9" x2="175.3" y2="257.3"/>
				<line class="st6" x1="287.4" y1="81.6" x2="164.4" y2="243"/>
				<line class="st6" x1="290.1" y1="85.1" x2="167.1" y2="246.6"/>
				<line class="st6" x1="292.8" y1="88.7" x2="169.9" y2="250.1"/>
				<line class="st6" x1="178.5" y1="-61.4" x2="55.5" y2="100"/>
				<line class="st6" x1="175.7" y1="-65" x2="52.8" y2="96.4"/>
				<line class="st6" x1="173" y1="-68.5" x2="50" y2="92.9"/>
				<line class="st6" x1="170.3" y1="-72.1" x2="47.3" y2="89.3"/>
				<line class="st6" x1="189.3" y1="-47.1" x2="66.4" y2="114.3"/>
				<line class="st6" x1="194.8" y1="-40" x2="71.8" y2="121.4"/>
				<line class="st6" x1="197.1" y1="-35.8" x2="74.1" y2="125.6"/>
				<line class="st6" x1="202.5" y1="-28.6" x2="79.5" y2="132.8"/>
				<line class="st6" x1="200.2" y1="-32.8" x2="77.3" y2="128.6"/>
				<line class="st6" x1="192.1" y1="-43.5" x2="69.1" y2="117.9"/>
				<line class="st6" x1="181.2" y1="-57.8" x2="58.2" y2="103.6"/>
				<line class="st6" x1="183.9" y1="-54.3" x2="60.9" y2="107.2"/>
				<line class="st6" x1="186.6" y1="-50.7" x2="63.7" y2="110.7"/>
				<line class="st6" x1="213.9" y1="-14.9" x2="90.9" y2="146.5"/>
				<line class="st6" x1="211.1" y1="-18.5" x2="88.2" y2="142.9"/>
				<line class="st6" x1="208.4" y1="-22.1" x2="85.4" y2="139.3"/>
				<line class="st6" x1="205.7" y1="-25.7" x2="82.7" y2="135.7"/>
				<line class="st6" x1="224.8" y1="-0.6" x2="101.8" y2="160.8"/>
				<line class="st6" x1="230.2" y1="6.5" x2="107.2" y2="167.9"/>
				<line class="st6" x1="232.5" y1="10.7" x2="109.5" y2="172.1"/>
				<line class="st6" x1="237.9" y1="17.8" x2="114.9" y2="179.2"/>
				<line class="st6" x1="235.6" y1="13.7" x2="112.7" y2="175.1"/>
				<line class="st6" x1="227.5" y1="2.9" x2="104.5" y2="164.3"/>
				<line class="st6" x1="216.6" y1="-11.4" x2="93.6" y2="150"/>
				<line class="st6" x1="219.3" y1="-7.8" x2="96.3" y2="153.6"/>
				<line class="st6" x1="222" y1="-4.2" x2="99.1" y2="157.2"/>
			</g>
		</g>
	</g>
	<g>
		<g>
			<rect id="SVGID_3_" x="188.5" y="208.9" class="st4" width="8.2" height="8.1"/>
		</g>
		<g>
			<defs>
				<rect id="SVGID_4_" x="188.5" y="208.9" width="8.2" height="8.1"/>
			</defs>
			<clipPath id="SVGID_5_">
				<use xlink:href="#SVGID_4_"  style="overflow:visible;"/>
			</clipPath>
			<g class="st7">
				<line class="st8" x1="289" y1="208.8" x2="188.4" y2="313"/>
				<line class="st8" x1="284.5" y1="204.2" x2="184" y2="308.4"/>
				<line class="st8" x1="280" y1="199.6" x2="179.5" y2="303.8"/>
				<line class="st8" x1="275.6" y1="195" x2="175.1" y2="299.2"/>
				<line class="st8" x1="282.3" y1="201.9" x2="181.7" y2="306.1"/>
				<line class="st8" x1="291.2" y1="211.1" x2="190.6" y2="315.4"/>
				<line class="st8" x1="295.3" y1="216.1" x2="194.7" y2="320.4"/>
				<line class="st8" x1="299.7" y1="220.7" x2="199.2" y2="325"/>
				<line class="st8" x1="297.9" y1="218" x2="197.3" y2="322.3"/>
				<line class="st8" x1="286.7" y1="206.5" x2="186.2" y2="310.7"/>
				<line class="st8" x1="293.4" y1="213.4" x2="192.9" y2="317.7"/>
				<line class="st8" x1="273.4" y1="192.6" x2="172.8" y2="296.9"/>
				<line class="st8" x1="277.8" y1="197.3" x2="177.3" y2="301.5"/>
				<line class="st8" x1="309" y1="229.6" x2="208.5" y2="333.8"/>
				<line class="st8" x1="306.8" y1="227.3" x2="206.2" y2="331.5"/>
				<line class="st8" x1="304.5" y1="225" x2="204" y2="329.2"/>
				<line class="st8" x1="302.3" y1="222.7" x2="201.8" y2="326.9"/>
				<line class="st8" x1="317.9" y1="238.8" x2="217.4" y2="343.1"/>
				<line class="st8" x1="322.3" y1="243.4" x2="221.8" y2="347.7"/>
				<line class="st8" x1="324.2" y1="246.1" x2="223.7" y2="350.4"/>
				<line class="st8" x1="328.7" y1="250.7" x2="228.1" y2="355"/>
				<line class="st8" x1="326.8" y1="248" x2="226.3" y2="352.3"/>
				<line class="st8" x1="320.1" y1="241.1" x2="219.6" y2="345.4"/>
				<line class="st8" x1="311.2" y1="231.9" x2="210.7" y2="336.1"/>
				<line class="st8" x1="313.4" y1="234.2" x2="212.9" y2="338.4"/>
				<line class="st8" x1="315.7" y1="236.5" x2="215.1" y2="340.7"/>
				<line class="st8" x1="222.2" y1="139.5" x2="121.6" y2="243.8"/>
				<line class="st8" x1="219.9" y1="137.2" x2="119.4" y2="241.5"/>
				<line class="st8" x1="217.7" y1="134.9" x2="117.2" y2="239.2"/>
				<line class="st8" x1="215.5" y1="132.6" x2="114.9" y2="236.9"/>
				<line class="st8" x1="231.1" y1="148.8" x2="130.5" y2="253"/>
				<line class="st8" x1="235.5" y1="153.4" x2="135" y2="257.6"/>
				<line class="st8" x1="237.4" y1="156.1" x2="136.8" y2="260.3"/>
				<line class="st8" x1="241.8" y1="160.7" x2="141.3" y2="265"/>
				<line class="st8" x1="240" y1="158" x2="139.4" y2="262.3"/>
				<line class="st8" x1="233.3" y1="151.1" x2="132.8" y2="255.3"/>
				<line class="st8" x1="224.4" y1="141.9" x2="123.8" y2="246.1"/>
				<line class="st8" x1="226.6" y1="144.2" x2="126.1" y2="248.4"/>
				<line class="st8" x1="228.8" y1="146.5" x2="128.3" y2="250.7"/>
				<line class="st8" x1="251.1" y1="169.6" x2="150.6" y2="273.8"/>
				<line class="st8" x1="248.9" y1="167.3" x2="148.3" y2="271.5"/>
				<line class="st8" x1="246.6" y1="164.9" x2="146.1" y2="269.2"/>
				<line class="st8" x1="244.4" y1="162.6" x2="143.9" y2="266.9"/>
				<line class="st8" x1="260" y1="178.8" x2="159.5" y2="283"/>
				<line class="st8" x1="264.5" y1="183.4" x2="163.9" y2="287.7"/>
				<line class="st8" x1="266.3" y1="186.1" x2="165.8" y2="290.3"/>
				<line class="st8" x1="270.8" y1="190.7" x2="170.2" y2="295"/>
				<line class="st8" x1="268.9" y1="188" x2="168.4" y2="292.3"/>
				<line class="st8" x1="262.2" y1="181.1" x2="161.7" y2="285.3"/>
				<line class="st8" x1="253.3" y1="171.9" x2="152.8" y2="276.1"/>
				<line class="st8" x1="255.6" y1="174.2" x2="155" y2="278.4"/>
				<line class="st8" x1="257.8" y1="176.5" x2="157.2" y2="280.7"/>
			</g>
		</g>
	</g>
</g>
<g id="Layer_7">
</g>
<g id="Layer_8">
</g>
<g id="Layer_9">
</g>
</svg>
